<svg width="20" height="20" viewBox="0 0 20 20" fill="none" xmlns="http://www.w3.org/2000/svg">
<path d="M9.37484 10.6243V13.3327C9.37484 13.51 9.43466 13.6585 9.55432 13.7782C9.67397 13.8978 9.82247 13.9576 9.99982 13.9576C10.1772 13.9576 10.3257 13.8978 10.4453 13.7782C10.565 13.6585 10.6248 13.51 10.6248 13.3327V10.6243H13.3331C13.5105 10.6243 13.659 10.5645 13.7786 10.4448C13.8983 10.3252 13.9581 10.1767 13.9581 9.99933C13.9581 9.82198 13.8983 9.67348 13.7786 9.55383C13.659 9.43418 13.5105 9.37435 13.3331 9.37435H10.6248V6.666C10.6248 6.48865 10.565 6.34015 10.4453 6.2205C10.3257 6.10084 10.1772 6.04102 9.99982 6.04102C9.82247 6.04102 9.67397 6.10084 9.55432 6.2205C9.43466 6.34015 9.37484 6.48865 9.37484 6.666V9.37435H6.66648C6.48914 9.37435 6.34064 9.43418 6.22098 9.55383C6.10133 9.67348 6.0415 9.82198 6.0415 9.99933C6.0415 10.1767 6.10133 10.3252 6.22098 10.4448C6.34064 10.5645 6.48914 10.6243 6.66648 10.6243H9.37484ZM4.42292 17.0826C4.00198 17.0826 3.64567 16.9368 3.354 16.6451C3.06234 16.3535 2.9165 15.9972 2.9165 15.5762V4.42243C2.9165 4.00149 3.06234 3.64518 3.354 3.35352C3.64567 3.06185 4.00198 2.91602 4.42292 2.91602H15.5767C15.9977 2.91602 16.354 3.06185 16.6456 3.35352C16.9373 3.64518 17.0831 4.00149 17.0831 4.42243V15.5762C17.0831 15.9972 16.9373 16.3535 16.6456 16.6451C16.354 16.9368 15.9977 17.0826 15.5767 17.0826H4.42292ZM4.42292 15.8327H15.5767C15.6408 15.8327 15.6996 15.806 15.753 15.7525C15.8064 15.6991 15.8332 15.6403 15.8332 15.5762V4.42243C15.8332 4.35832 15.8064 4.29955 15.753 4.24612C15.6996 4.1927 15.6408 4.166 15.5767 4.166H4.42292C4.35881 4.166 4.30004 4.1927 4.24661 4.24612C4.19319 4.29955 4.16648 4.35832 4.16648 4.42243V15.5762C4.16648 15.6403 4.19319 15.6991 4.24661 15.7525C4.30004 15.806 4.35881 15.8327 4.42292 15.8327Z" fill="#787486"/>
</svg>
